<svg xmlns="http://www.w3.org/2000/svg" viewBox="0 0 1000 310" width="100%" style="font-family:'Segoe UI',Arial,sans-serif">
<defs>
<filter id="s"><feDropShadow dx="1" dy="2" stdDeviation="2" flood-opacity="0.12"/></filter>
<linearGradient id="gh" x1="0" y1="0" x2="1" y2="0"><stop offset="0%" stop-color="#1e3a5f"/><stop offset="100%" stop-color="#3b82f6"/></linearGradient>
<linearGradient id="gb" x1="0" y1="0" x2="0" y2="1"><stop offset="0%" stop-color="#dbeafe"/><stop offset="100%" stop-color="#bfdbfe"/></linearGradient>
<linearGradient id="gg" x1="0" y1="0" x2="0" y2="1"><stop offset="0%" stop-color="#dcfce7"/><stop offset="100%" stop-color="#bbf7d0"/></linearGradient>
<linearGradient id="gr" x1="0" y1="0" x2="0" y2="1"><stop offset="0%" stop-color="#fef2f2"/><stop offset="100%" stop-color="#fecaca"/></linearGradient>
<linearGradient id="go" x1="0" y1="0" x2="0" y2="1"><stop offset="0%" stop-color="#ffedd5"/><stop offset="100%" stop-color="#fed7aa"/></linearGradient>
<linearGradient id="gp" x1="0" y1="0" x2="0" y2="1"><stop offset="0%" stop-color="#f3e8ff"/><stop offset="100%" stop-color="#e9d5ff"/></linearGradient>
<linearGradient id="gt" x1="0" y1="0" x2="0" y2="1"><stop offset="0%" stop-color="#ccfbf1"/><stop offset="100%" stop-color="#99f6e4"/></linearGradient>
</defs>
<rect x="0" y="0" width="1000" height="310" fill="#f8fafc" rx="10"/>
<rect x="10" y="8" width="980" height="34" fill="url(#gh)" rx="6"/>
<text x="500" y="30" text-anchor="middle" fill="#fff" font-size="14" font-weight="bold">Comparativa de arquitecturas</text>
<marker id="a" viewBox="0 0 8 8" refX="6" refY="4" markerWidth="5" markerHeight="5" orient="auto"><path d="M0,0 L8,4 L0,8 Z" fill="#94a3b8"/></marker>
<rect x="30" y="55" width="200" height="240" fill="#fff" stroke="#e2e8f0" stroke-width="1" rx="8"/>
<rect x="35" y="60" width="190" height="30" fill="#1e3a5f" rx="5"/><text x="130" y="80" text-anchor="middle" fill="#fff" font-size="12" font-weight="bold">MLP</text>
<rect x="45" y="100" width="170" height="50" fill="url(gr)" rx="6" filter="url(#s)" stroke="#cbd5e1" stroke-width="1"/><text x="130" y="120" text-anchor="middle" fill="#1e40af" font-size="11">Vector</text>
<text x="130" y="138" text-anchor="middle" fill="#1e40af" font-size="11">plano 1D</text>
<line x1="130" y1="155" x2="130" y2="175" stroke="#94a3b8" stroke-width="1.5" marker-end="url(#a)"/>
<rect x="45" y="180" width="170" height="50" fill="url(gr)" rx="6" filter="url(#s)" stroke="#cbd5e1" stroke-width="1"/><text x="130" y="200" text-anchor="middle" fill="#991b1b" font-size="11">Ignora estructura</text>
<text x="130" y="218" text-anchor="middle" fill="#991b1b" font-size="11">relacional</text>
<rect x="265" y="55" width="200" height="240" fill="#fff" stroke="#e2e8f0" stroke-width="1" rx="8"/>
<rect x="270" y="60" width="190" height="30" fill="#1e3a5f" rx="5"/><text x="365" y="80" text-anchor="middle" fill="#fff" font-size="12" font-weight="bold">CNN</text>
<rect x="280" y="100" width="170" height="50" fill="url(gr)" rx="6" filter="url(#s)" stroke="#cbd5e1" stroke-width="1"/><text x="365" y="120" text-anchor="middle" fill="#1e40af" font-size="11">Grid regular</text>
<text x="365" y="138" text-anchor="middle" fill="#1e40af" font-size="11">2D/3D</text>
<line x1="365" y1="155" x2="365" y2="175" stroke="#94a3b8" stroke-width="1.5" marker-end="url(#a)"/>
<rect x="280" y="180" width="170" height="50" fill="url(gr)" rx="6" filter="url(#s)" stroke="#cbd5e1" stroke-width="1"/><text x="365" y="200" text-anchor="middle" fill="#991b1b" font-size="11">Requiere vecinos</text>
<text x="365" y="218" text-anchor="middle" fill="#991b1b" font-size="11">ordenados</text>
<rect x="500" y="55" width="200" height="240" fill="#fff" stroke="#e2e8f0" stroke-width="1" rx="8"/>
<rect x="505" y="60" width="190" height="30" fill="#1e3a5f" rx="5"/><text x="600" y="80" text-anchor="middle" fill="#fff" font-size="12" font-weight="bold">RNN/LSTM</text>
<rect x="515" y="100" width="170" height="50" fill="url(gr)" rx="6" filter="url(#s)" stroke="#cbd5e1" stroke-width="1"/><text x="600" y="120" text-anchor="middle" fill="#1e40af" font-size="11">Secuencia</text>
<text x="600" y="138" text-anchor="middle" fill="#1e40af" font-size="11">1D temporal</text>
<line x1="600" y1="155" x2="600" y2="175" stroke="#94a3b8" stroke-width="1.5" marker-end="url(#a)"/>
<rect x="515" y="180" width="170" height="50" fill="url(gr)" rx="6" filter="url(#s)" stroke="#cbd5e1" stroke-width="1"/><text x="600" y="200" text-anchor="middle" fill="#991b1b" font-size="11">Ignora grafo</text>
<text x="600" y="218" text-anchor="middle" fill="#991b1b" font-size="11">subyacente</text>
<rect x="735" y="55" width="200" height="240" fill="#fff" stroke="#e2e8f0" stroke-width="1" rx="8"/>
<rect x="740" y="60" width="190" height="30" fill="#1e3a5f" rx="5"/><text x="835" y="80" text-anchor="middle" fill="#fff" font-size="12" font-weight="bold">GNN</text>
<rect x="750" y="100" width="170" height="50" fill="url(gg)" rx="6" filter="url(#s)" stroke="#cbd5e1" stroke-width="1"/><text x="835" y="120" text-anchor="middle" fill="#1e40af" font-size="11">Grafo con</text>
<text x="835" y="138" text-anchor="middle" fill="#1e40af" font-size="11">aristas</text>
<line x1="835" y1="155" x2="835" y2="175" stroke="#94a3b8" stroke-width="1.5" marker-end="url(#a)"/>
<rect x="750" y="180" width="170" height="50" fill="url(gg)" rx="6" filter="url(#s)" stroke="#cbd5e1" stroke-width="1"/><text x="835" y="200" text-anchor="middle" fill="#166534" font-size="11">Modela relaciones</text>
<text x="835" y="218" text-anchor="middle" fill="#166534" font-size="11">NO euclideas</text>
<line x1="230" y1="180" x2="260" y2="180" stroke="#cbd5e1" stroke-width="1.5" stroke-dasharray="4,3"/>
<text x="245" y="175" text-anchor="middle" fill="#94a3b8" font-size="10">inadecuado</text>
<line x1="465" y1="180" x2="495" y2="180" stroke="#cbd5e1" stroke-width="1.5" stroke-dasharray="4,3"/>
<text x="480" y="175" text-anchor="middle" fill="#94a3b8" font-size="10">inadecuado</text>
<line x1="700" y1="180" x2="730" y2="180" stroke="#cbd5e1" stroke-width="1.5" stroke-dasharray="4,3"/>
<text x="715" y="175" text-anchor="middle" fill="#94a3b8" font-size="10">inadecuado</text>

</svg>