<svg xmlns="http://www.w3.org/2000/svg" viewBox="0 0 830 680" width="100%" style="font-family:'Segoe UI',Arial,sans-serif">
<defs>
<filter id="s"><feDropShadow dx="1" dy="2" stdDeviation="2" flood-opacity="0.12"/></filter>
<linearGradient id="gh" x1="0" y1="0" x2="1" y2="0"><stop offset="0%" stop-color="#1e3a5f"/><stop offset="100%" stop-color="#3b82f6"/></linearGradient>
<linearGradient id="gb" x1="0" y1="0" x2="0" y2="1"><stop offset="0%" stop-color="#dbeafe"/><stop offset="100%" stop-color="#bfdbfe"/></linearGradient>
<linearGradient id="gg" x1="0" y1="0" x2="0" y2="1"><stop offset="0%" stop-color="#dcfce7"/><stop offset="100%" stop-color="#bbf7d0"/></linearGradient>
<linearGradient id="gr" x1="0" y1="0" x2="0" y2="1"><stop offset="0%" stop-color="#fef2f2"/><stop offset="100%" stop-color="#fecaca"/></linearGradient>
<linearGradient id="go" x1="0" y1="0" x2="0" y2="1"><stop offset="0%" stop-color="#ffedd5"/><stop offset="100%" stop-color="#fed7aa"/></linearGradient>
<linearGradient id="gp" x1="0" y1="0" x2="0" y2="1"><stop offset="0%" stop-color="#f3e8ff"/><stop offset="100%" stop-color="#e9d5ff"/></linearGradient>
<linearGradient id="gt" x1="0" y1="0" x2="0" y2="1"><stop offset="0%" stop-color="#ccfbf1"/><stop offset="100%" stop-color="#99f6e4"/></linearGradient>
</defs>
<rect x="0" y="0" width="830" height="680" fill="#f8fafc" rx="10"/>
<rect x="10" y="8" width="810" height="34" fill="url(#gh)" rx="6"/>
<text x="415" y="30" text-anchor="middle" fill="#fff" font-size="14" font-weight="bold">Arbol de Decision de Arquitecturas GNN</text>
<marker id="a" viewBox="0 0 8 8" refX="6" refY="4" markerWidth="5" markerHeight="5" orient="auto"><path d="M0,0 L8,4 L0,8 Z" fill="#94a3b8"/></marker>
<line x1="415" y1="105" x2="225" y2="152" stroke="#94a3b8" stroke-width="1.5" marker-end="url(#a)"/>
<rect x="258" y="130" width="24" height="16" fill="#fff" rx="4" stroke="#cbd5e1" stroke-width="1"/>
<text x="270" y="142" text-anchor="middle" fill="#64748b" font-size="10">Si</text>
<line x1="415" y1="105" x2="605" y2="152" stroke="#94a3b8" stroke-width="1.5" marker-end="url(#a)"/>
<rect x="548" y="130" width="24" height="16" fill="#fff" rx="4" stroke="#cbd5e1" stroke-width="1"/>
<text x="560" y="142" text-anchor="middle" fill="#64748b" font-size="10">No</text>
<line x1="225" y1="200" x2="125" y2="252" stroke="#94a3b8" stroke-width="1.5" marker-end="url(#a)"/>
<rect x="163" y="230" width="24" height="16" fill="#fff" rx="4" stroke="#cbd5e1" stroke-width="1"/>
<text x="175" y="242" text-anchor="middle" fill="#64748b" font-size="10">Si</text>
<line x1="225" y1="200" x2="325" y2="252" stroke="#94a3b8" stroke-width="1.5" marker-end="url(#a)"/>
<rect x="263" y="230" width="24" height="16" fill="#fff" rx="4" stroke="#cbd5e1" stroke-width="1"/>
<text x="275" y="242" text-anchor="middle" fill="#64748b" font-size="10">No</text>
<line x1="125" y1="300" x2="35" y2="362" stroke="#94a3b8" stroke-width="1.5" marker-end="url(#a)"/>
<line x1="125" y1="300" x2="215" y2="362" stroke="#94a3b8" stroke-width="1.5" marker-end="url(#a)"/>
<line x1="325" y1="300" x2="35" y2="472" stroke="#94a3b8" stroke-width="1.5" marker-end="url(#a)"/>
<line x1="325" y1="300" x2="215" y2="472" stroke="#94a3b8" stroke-width="1.5" marker-end="url(#a)"/>
<line x1="325" y1="300" x2="395" y2="362" stroke="#94a3b8" stroke-width="1.5" marker-end="url(#a)"/>
<line x1="605" y1="200" x2="605" y2="362" stroke="#94a3b8" stroke-width="1.5" marker-end="url(#a)"/>
<rect x="325" y="71" width="180" height="26" fill="#fef3c7" stroke="#cbd5e1" stroke-width="1" rx="8" filter="url(#s)"/>
<text x="415" y="85" text-anchor="middle" fill="#92400e" font-size="12" font-weight="bold">Los datos tienen estructura de grafo?</text>
<rect x="135" y="166" width="180" height="26" fill="#fef3c7" stroke="#cbd5e1" stroke-width="1" rx="8" filter="url(#s)"/>
<text x="225" y="180" text-anchor="middle" fill="#92400e" font-size="12" font-weight="bold">Nodos con atributos?</text>
<rect x="515" y="158" width="180" height="42" fill="#fef2f2" stroke="#cbd5e1" stroke-width="1" rx="8" filter="url(#s)"/>
<text x="605" y="180" text-anchor="middle" fill="#991b1b" font-size="11" font-weight="bold">Usa MLP / CNN / RNN</text>
<text x="605" y="196" text-anchor="middle" fill="#991b1b" font-size="11" font-weight="bold">segun el tipo de dato</text>
<rect x="35" y="258" width="180" height="42" fill="#fef3c7" stroke="#cbd5e1" stroke-width="1" rx="8" filter="url(#s)"/>
<text x="125" y="280" text-anchor="middle" fill="#92400e" font-size="11" font-weight="bold">Grafo transductivo</text>
<text x="125" y="296" text-anchor="middle" fill="#92400e" font-size="11" font-weight="bold">(mismo en train/test)?</text>
<rect x="235" y="258" width="180" height="42" fill="#fef3c7" stroke="#cbd5e1" stroke-width="1" rx="8" filter="url(#s)"/>
<text x="325" y="280" text-anchor="middle" fill="#92400e" font-size="11" font-weight="bold">Multiples capas</text>
<text x="325" y="296" text-anchor="middle" fill="#92400e" font-size="11" font-weight="bold">para vecindarios?</text>
<rect x="-55" y="368" width="180" height="42" fill="#dbeafe" stroke="#cbd5e1" stroke-width="1" rx="8" filter="url(#s)"/>
<text x="35" y="390" text-anchor="middle" fill="#1e3a5f" font-size="11" font-weight="bold">GCN</text>
<text x="35" y="406" text-anchor="middle" fill="#1e3a5f" font-size="11" font-weight="bold">Kipf &amp; Welling 2017</text>
<rect x="125" y="368" width="180" height="42" fill="#dbeafe" stroke="#cbd5e1" stroke-width="1" rx="8" filter="url(#s)"/>
<text x="215" y="390" text-anchor="middle" fill="#1e3a5f" font-size="11" font-weight="bold">GAT (atencion)</text>
<text x="215" y="406" text-anchor="middle" fill="#1e3a5f" font-size="11" font-weight="bold">Velickovic et al. 2018</text>
<rect x="-55" y="478" width="180" height="42" fill="#dcfce7" stroke="#cbd5e1" stroke-width="1" rx="8" filter="url(#s)"/>
<text x="35" y="500" text-anchor="middle" fill="#166534" font-size="11" font-weight="bold">GraphSAGE</text>
<text x="35" y="516" text-anchor="middle" fill="#166534" font-size="11" font-weight="bold">Hamilton et al. 2017</text>
<rect x="125" y="478" width="180" height="42" fill="#dcfce7" stroke="#cbd5e1" stroke-width="1" rx="8" filter="url(#s)"/>
<text x="215" y="500" text-anchor="middle" fill="#166534" font-size="11" font-weight="bold">GAT (inductivo)</text>
<text x="215" y="516" text-anchor="middle" fill="#166534" font-size="11" font-weight="bold">Velickovic et al. 2018</text>
<rect x="305" y="368" width="180" height="42" fill="#f3e8ff" stroke="#cbd5e1" stroke-width="1" rx="8" filter="url(#s)"/>
<text x="395" y="390" text-anchor="middle" fill="#581c87" font-size="11" font-weight="bold">GIN</text>
<text x="395" y="406" text-anchor="middle" fill="#581c87" font-size="11" font-weight="bold">Xu et al. 2019</text>
<rect x="515" y="368" width="180" height="42" fill="#f3e8ff" stroke="#cbd5e1" stroke-width="1" rx="8" filter="url(#s)"/>
<text x="605" y="390" text-anchor="middle" fill="#581c87" font-size="11" font-weight="bold">GNN + Pooling</text>
<text x="605" y="406" text-anchor="middle" fill="#581c87" font-size="11" font-weight="bold">DiffPool / TopK</text>
<rect x="80" y="560" width="670" height="55" fill="url(gg)" rx="10" stroke="#86efac" stroke-width="2"/><text x="415" y="582" text-anchor="middle" fill="#166534" font-size="13" font-weight="bold">&#10003; Recomendacion para SentinelGrafo:</text>
<text x="415" y="602" text-anchor="middle" fill="#166534" font-size="12">Usar GraphSAGE para inferencia inductiva y GCN para escenarios transductivos</text>
<rect x="60" y="622" width="710" height="30" fill="url(gb)" rx="6"/><text x="415" y="642" text-anchor="middle" fill="#1e40af" font-size="10">GCN = Graph Convolutional Network | GAT = Graph Attention Network | GIN = Graph Isomorphism Network</text>

</svg>